<svg width="28" height="27" viewBox="0 0 28 27" fill="none" xmlns="http://www.w3.org/2000/svg">
<g clip-path="url(#clip0_236_148)">
<path d="M0.575317 26.596H10.0685C14.57 26.596 18.2192 23.1298 18.2192 18.854H8.726C4.2245 18.854 0.575317 22.3202 0.575317 26.596Z" fill="#F22BB2"/>
<path d="M1 7.74198V19.1272C5.5015 19.1272 9.15069 15.661 9.15069 11.3853V0C4.64919 0 1 3.4662 1 7.74198Z" fill="#8C30F5"/>
<path d="M27.4247 0H17.9315C13.43 0 9.78082 3.4662 9.78082 7.74198H19.274C23.7755 7.74198 27.4247 4.27578 27.4247 0Z" fill="#FE9A22"/>
<path d="M27.4247 18.3986V7.01331C22.9232 7.01331 19.274 10.4795 19.274 14.7553V26.1405C23.7755 26.1405 27.4247 22.6743 27.4247 18.3986Z" fill="#2EC5CE"/>
</g>
<defs>
<clipPath id="clip0_236_148">
<rect width="28" height="26.596" fill="white"/>
</clipPath>
</defs>
</svg>
