<svg width="20" height="20" viewBox="0 0 20 20" fill="none" xmlns="http://www.w3.org/2000/svg">
<path d="M17 2.82926C16.0832 1.9289 14.9912 1.21503 13.7876 0.729283C12.5841 0.243539 11.2931 -0.00435572 9.99 5.79156e-05C4.53 5.79156e-05 0.0800002 4.3265 0.0800002 9.6349C0.0800002 11.3363 0.54 12.9891 1.4 14.4475L0 19.4447L5.25 18.1031C6.7 18.8711 8.33 19.2795 9.99 19.2795C15.45 19.2795 19.9 14.953 19.9 9.64462C19.9 7.0682 18.87 4.64734 17 2.82926ZM9.99 17.6461C8.51 17.6461 7.06 17.2572 5.79 16.528L5.49 16.353L2.37 17.1503L3.2 14.1947L3 13.8933C2.17775 12.6167 1.74114 11.1411 1.74 9.6349C1.74 5.22095 5.44 1.62369 9.98 1.62369C12.18 1.62369 14.25 2.45981 15.8 3.9765C16.5675 4.71925 17.1757 5.60271 17.5894 6.57569C18.0031 7.54866 18.214 8.59179 18.21 9.64462C18.23 14.0586 14.53 17.6461 9.99 17.6461ZM14.51 11.6571C14.26 11.5405 13.04 10.9571 12.82 10.8696C12.59 10.7919 12.43 10.753 12.26 10.9863C12.09 11.2294 11.62 11.7738 11.48 11.9294C11.34 12.0946 11.19 12.1141 10.94 11.9877C10.69 11.871 9.89 11.6085 8.95 10.7919C8.21 10.1502 7.72 9.36267 7.57 9.11961C7.43 8.87655 7.55 8.75016 7.68 8.62377C7.79 8.51683 7.93 8.34182 8.05 8.20571C8.17 8.0696 8.22 7.96265 8.3 7.8071C8.38 7.64182 8.34 7.5057 8.28 7.38904C8.22 7.27237 7.72 6.08624 7.52 5.60013C7.32 5.13345 7.11 5.19179 6.96 5.18207H6.48C6.31 5.18207 6.05 5.2404 5.82 5.48346C5.6 5.72652 4.96 6.30986 4.96 7.49598C4.96 8.68211 5.85 9.82934 5.97 9.9849C6.09 10.1502 7.72 12.5808 10.2 13.6211C10.79 13.8738 11.25 14.0197 11.61 14.1266C12.2 14.3113 12.74 14.2822 13.17 14.2238C13.65 14.1558 14.64 13.6405 14.84 13.0766C15.05 12.5127 15.05 12.0363 14.98 11.9294C14.91 11.8224 14.76 11.7738 14.51 11.6571Z" fill="white"/>
</svg>
